<?xml version="1.0" encoding="iso-8859-1"?>
<!-- Generator: Adobe Illustrator 24.0.1, SVG Export Plug-In . SVG Version: 6.00 Build 0)  -->
<svg version="1.1" id="&#x56FE;&#x5C42;_1" xmlns="http://www.w3.org/2000/svg" xmlns:xlink="http://www.w3.org/1999/xlink" x="0px"
	 y="0px" viewBox="0 0 55 55" style="enable-background:new 0 0 55 55;" xml:space="preserve">
<g>
	<defs>
		<path id="SVGID_3_" d="M665.959-124.255h-740c-44,0-80-36-80-80v-340c0-44,36-80,80-80h740c44,0,80,36,80,80v340
			C745.959-160.255,709.959-124.255,665.959-124.255z"/>
	</defs>
	<clipPath id="SVGID_2_">
		<use xlink:href="#SVGID_3_"  style="overflow:visible;"/>
	</clipPath>
</g>
<g>
	<path style="fill:#AFAFAF;" d="M27.519,55c-2.292,0-4.167-1.344-4.167-2.987V2.987C23.352,1.344,25.227,0,27.519,0
		c2.292,0,4.167,1.344,4.167,2.987v49.026C31.685,53.656,29.81,55,27.519,55L27.519,55z M27.519,55"/>
	<path style="fill:#AFAFAF;" d="M52.05,31.648H2.987C1.344,31.648,0,29.773,0,27.481c0-2.292,1.344-4.166,2.987-4.166h49.026
		c1.643,0,2.987,1.875,2.987,4.166C55,29.773,53.693,31.648,52.05,31.648L52.05,31.648z M52.05,31.648"/>
</g>
</svg>
