<?xml version="1.0" encoding="iso-8859-1"?>
<!-- Generator: Adobe Illustrator 24.0.1, SVG Export Plug-In . SVG Version: 6.00 Build 0)  -->
<svg version="1.1" id="&#x56FE;&#x5C42;_1" xmlns="http://www.w3.org/2000/svg" xmlns:xlink="http://www.w3.org/1999/xlink" x="0px"
	 y="0px" viewBox="0 0 123.979 84.255" style="enable-background:new 0 0 123.979 84.255;" xml:space="preserve">
<g>
	<defs>
		<path id="SVGID_3_" d="M670.002-20h-740c-44,0-80-36-80-80v-340c0-44,36-80,80-80h740c44,0,80,36,80,80v340
			C750.002-56,714.002-20,670.002-20z"/>
	</defs>
	<clipPath id="SVGID_2_">
		<use xlink:href="#SVGID_3_"  style="overflow:visible;"/>
	</clipPath>
</g>
<path style="fill:#B8C5D5;" d="M81.447,84.255H42.128C18.957,84.255,0,65.298,0,42.128v0C0,18.957,18.957,0,42.128,0h39.319
	c23.17,0,42.128,18.957,42.128,42.128v0C123.574,65.298,104.617,84.255,81.447,84.255z"/>
<polyline style="fill:none;stroke:#FFFFFF;stroke-width:10;stroke-linecap:round;stroke-linejoin:round;stroke-miterlimit:10;" points="
	68.643,24.142 41.434,42.653 68.643,60.113 "/>
</svg>
