<?xml version="1.0" encoding="iso-8859-1"?>
<!-- Generator: Adobe Illustrator 24.0.1, SVG Export Plug-In . SVG Version: 6.00 Build 0)  -->
<svg version="1.1" id="&#x56FE;&#x5C42;_1" xmlns="http://www.w3.org/2000/svg" xmlns:xlink="http://www.w3.org/1999/xlink" x="0px"
	 y="0px" viewBox="0 0 1124.176 2436" style="enable-background:new 0 0 1124.176 2436;" xml:space="preserve">
<g style="opacity:0.6;">
	<rect x="-0.206" style="fill:#FFFFFF;" width="1124.588" height="2436"/>
	<rect x="842.926" y="281.453" style="fill:#FFFFFF;" width="281.044" height="281.044"/>
	<rect x="280.838" y="281.453" style="fill:#FFFFFF;" width="281.044" height="281.044"/>
	<g>
		<g>
			<circle style="fill:#91E1E7;" cx="140.316" cy="703.019" r="140.522"/>
			<path style="fill:#91E1E7;" d="M280.838,703.019V562.497H140.316C140.316,640.105,203.23,703.019,280.838,703.019"/>
		</g>
	</g>
	<g>
		<g>
			<circle style="fill:#D2B6EC;" cx="702.404" cy="984.063" r="140.522"/>
			<path style="fill:#D2B6EC;" d="M842.926,984.063V843.541H702.404C702.404,921.149,765.317,984.063,842.926,984.063"/>
		</g>
	</g>
	<path style="fill:#FBBB85;" d="M280.838,703.019V562.497h281.044v140.522c0,77.608-62.914,140.522-140.522,140.522h0
		C343.752,843.541,280.838,780.627,280.838,703.019z"/>
	<path style="fill:#FFFFFF;" d="M346.36,703.019V562.497h150v140.522c0,41.421-33.579,75-75,75h0
		C379.938,778.019,346.36,744.44,346.36,703.019z"/>
	<path style="fill:#CAE7B9;" d="M140.316,1403.998H-0.206l0-281.044h140.522c77.608,0,140.522,62.914,140.522,140.522v0
		C280.838,1341.085,217.924,1403.998,140.316,1403.998z"/>
	<path style="fill:#FFFFFF;" d="M140.316,1338.476H-0.206l0-150h140.522c41.421,0,75,33.579,75,75v0
		C215.316,1304.898,181.737,1338.476,140.316,1338.476z"/>
	<circle style="fill:#D2B6EC;" cx="421.36" cy="421.975" r="140.522"/>
	<circle style="fill:#FBBB85;" cx="702.404" cy="421.975" r="140.522"/>
	<circle style="fill:#CAE7B9;" cx="140.316" cy="351.714" r="70.261"/>
	<circle style="fill:#CAE7B9;" cx="140.316" cy="492.236" r="70.261"/>
	<circle style="fill:#FBBB85;" cx="140.316" cy="492.236" r="70.261"/>
	<circle style="fill:#D2B6EC;" cx="983.448" cy="1193.215" r="70.261"/>
	<circle style="fill:#FBBB85;" cx="983.448" cy="1333.737" r="70.261"/>
	<circle style="fill:#D2B6EC;" cx="983.448" cy="703.019" r="139.657"/>
	<circle style="fill:#FBBB85;" cx="140.316" cy="1551.653" r="81.712"/>
	<path style="fill:#FBBB85;" d="M280.838,843.541v281.044H-0.206C-0.206,969.368,125.622,843.541,280.838,843.541"/>
	<path style="fill:#91E1E7;" d="M842.926,1685.042v-281.044h281.044C1123.969,1559.215,998.142,1685.042,842.926,1685.042"/>
	<path style="fill:#CAE7B9;" d="M1123.969,1124.585V843.541H842.926C842.926,998.757,968.753,1124.585,1123.969,1124.585"/>
	<path style="fill:#CAE7B9;" d="M842.06,703.019c0,77.13-62.527,139.657-139.657,139.657s-139.657-62.526-139.657-139.657"/>
	<path style="fill:#91E1E7;" d="M842.06,562.929c0,77.13-62.527,139.657-139.657,139.657S562.747,640.06,562.747,562.929"/>
	<path style="fill:#CAE7B9;" d="M983.231,282.102c-77.13,0-139.657,62.526-139.657,139.657s62.526,139.657,139.657,139.657"/>
	<path style="fill:#91E1E7;" d="M1123.321,282.102c-77.13,0-139.657,62.526-139.657,139.657s62.526,139.657,139.657,139.657"/>
</g>
</svg>
