<?xml version="1.0" encoding="utf-8"?>
<!-- Generator: Adobe Illustrator 24.0.1, SVG Export Plug-In . SVG Version: 6.00 Build 0)  -->
<svg version="1.1" id="图层_1" xmlns="http://www.w3.org/2000/svg" xmlns:xlink="http://www.w3.org/1999/xlink" x="0px" y="0px"
	 viewBox="0 0 70 70" style="enable-background:new 0 0 70 70;" xml:space="preserve">
<style type="text/css">
	.st0{fill:#FFFFFF;}
</style>
<path class="st0" d="M0.49,35.31c1,2.31,3.35,3.82,5.96,3.82c0.15,0,0.27,0.11,0.27,0.26v20.32c0,5.7,4.85,10.29,10.77,10.29h5.69
	c3.54,0,6.42-2.76,6.42-6.14V50.41c0-0.15,0.12-0.26,0.27-0.26h10.27c0.15,0,0.27,0.11,0.27,0.26v13.45c0,3.38,2.89,6.14,6.42,6.14
	h6.04c5.73,0,10.39-4.45,10.39-9.92v-13.3c0-1.62-1.39-2.94-3.08-2.94c-1.69,0-3.08,1.32-3.08,2.94v13.3c0,2.2-1.89,4.04-4.23,4.04
	h-6.08c-0.15,0-0.27-0.11-0.27-0.26V50.41c0-3.38-2.89-6.14-6.42-6.14H29.88c-3.54,0-6.42,2.76-6.42,6.14v13.45
	c0,0.15-0.12,0.26-0.27,0.26h-5.69c-2.54,0-4.62-1.98-4.62-4.41V39.39c0-3.38-2.89-6.14-6.42-6.14c-0.08,0-0.19,0-0.27-0.15
	c-0.04-0.18,0.04-0.26,0.08-0.29L34.8,5.95c0.12-0.11,0.27-0.11,0.38,0l28.55,26.9c0.08,0.07,0.15,0.15,0.08,0.29
	c-0.08,0.15-0.19,0.15-0.27,0.15c-1.69,0-3.08,1.32-3.08,2.94c0,1.62,1.39,2.94,3.08,2.94c2.62,0,4.96-1.51,5.96-3.82
	c1-2.35,0.46-4.96-1.42-6.72L39.54,1.76c-2.5-2.35-6.54-2.35-9.04,0L1.91,28.59C0.06,30.35-0.51,33,0.49,35.31z"/>
</svg>
