<?xml version="1.0" encoding="iso-8859-1"?>
<!-- Generator: Adobe Illustrator 24.0.1, SVG Export Plug-In . SVG Version: 6.00 Build 0)  -->
<svg version="1.1" id="&#x56FE;&#x5C42;_1" xmlns="http://www.w3.org/2000/svg" xmlns:xlink="http://www.w3.org/1999/xlink" x="0px"
	 y="0px" viewBox="0 0 70 70" style="enable-background:new 0 0 70 70;" xml:space="preserve">
<path style="fill:#1C2C4C;" d="M52.886,70h-6.04c-3.539,0-6.425-2.756-6.425-6.136V50.415c0-0.147-0.116-0.257-0.269-0.257H29.879
	c-0.154,0-0.269,0.11-0.269,0.257v13.449c0,3.38-2.885,6.136-6.425,6.136h-5.694c-5.925,0-10.772-4.593-10.772-10.289v-20.32
	c0-0.147-0.116-0.257-0.269-0.257c-2.616,0-4.963-1.507-5.963-3.821c-1.001-2.315-0.423-4.961,1.423-6.724L30.495,1.764
	c2.5-2.352,6.54-2.352,9.041,0l28.547,26.861c1.885,1.764,2.424,4.373,1.423,6.724c-1,2.315-3.347,3.821-5.963,3.821
	c-1.693,0-3.078-1.323-3.078-2.939c0-1.617,1.385-2.94,3.078-2.94c0.077,0,0.193,0,0.269-0.147c0.077-0.147,0-0.221-0.077-0.294
	L35.188,5.953c-0.115-0.11-0.269-0.11-0.385,0L6.257,32.814c-0.038,0.037-0.115,0.11-0.077,0.294
	c0.077,0.147,0.192,0.147,0.269,0.147c3.54,0,6.425,2.756,6.425,6.136v20.32c0,2.425,2.077,4.409,4.617,4.409h5.694
	c0.154,0,0.269-0.11,0.269-0.257V50.415c0-3.381,2.885-6.137,6.425-6.137h10.234c3.54,0,6.425,2.756,6.425,6.137v13.449
	c0,0.147,0.116,0.257,0.269,0.257h6.079c2.347,0,4.232-1.837,4.232-4.042V46.777c0-1.617,1.385-2.94,3.078-2.94
	c1.693,0,3.078,1.323,3.078,2.94v13.302C63.273,65.554,58.618,70,52.886,70L52.886,70z M52.886,70"/>
</svg>
