<?xml version="1.0" encoding="iso-8859-1"?>
<!-- Generator: Adobe Illustrator 24.0.1, SVG Export Plug-In . SVG Version: 6.00 Build 0)  -->
<svg version="1.1" id="&#x56FE;&#x5C42;_1" xmlns="http://www.w3.org/2000/svg" xmlns:xlink="http://www.w3.org/1999/xlink" x="0px"
	 y="0px" viewBox="0 0 55 62.984" style="enable-background:new 0 0 55 62.984;" xml:space="preserve">
<g>
	<defs>
		<path id="SVGID_19_" d="M-100,500h-740c-44,0-80-36-80-80V80c0-44,36-80,80-80h740c44,0,80,36,80,80v340C-20,464-56,500-100,500z"
			/>
	</defs>
	<clipPath id="SVGID_2_">
		<use xlink:href="#SVGID_19_"  style="overflow:visible;"/>
	</clipPath>
</g>
<g>
	<g>
		<g>
			<g>
				<path style="fill:#BA7342;" d="M46.852,52.882H8.375c-1.29,0-2.335-1.045-2.335-2.335V27.634c0-2.912,0.571-5.739,1.696-8.4
					c1.088-2.569,2.642-4.873,4.621-6.857c1.979-1.985,4.289-3.533,6.857-4.621c2.661-1.124,5.487-1.696,8.4-1.696
					c2.913,0,5.739,0.572,8.4,1.696c2.569,1.088,4.873,2.642,6.857,4.621c1.985,1.979,3.533,4.289,4.621,6.857
					c1.125,2.661,1.696,5.487,1.696,8.4v22.913C49.187,51.838,48.137,52.882,46.852,52.882L46.852,52.882z M10.71,48.212h33.801
					V27.634c0-9.321-7.582-16.904-16.904-16.904c-9.322,0-16.904,7.582-16.904,16.904v20.578H10.71z M10.71,48.212"/>
			</g>
		</g>
		<g>
			<g>
				<path style="fill:#BA7342;" d="M52.665,52.876H2.335C1.045,52.876,0,51.831,0,50.541c0-1.29,1.045-2.335,2.335-2.335h50.33
					c1.29,0,2.335,1.045,2.335,2.335C55,51.831,53.956,52.876,52.665,52.876L52.665,52.876z M52.665,52.876"/>
			</g>
		</g>
		<g>
			<g>
				<path style="fill:#BA7342;" d="M27.497,62.984c-6.378,0-11.57-5.192-11.57-11.577c0-1.29,1.045-2.335,2.335-2.335
					c1.29,0,2.335,1.045,2.335,2.335c0,3.81,3.097,6.907,6.906,6.907c3.81,0,6.907-3.097,6.907-6.907
					c0-1.29,1.045-2.335,2.335-2.335c1.29,0,2.335,1.045,2.335,2.335C39.073,57.792,33.881,62.984,27.497,62.984L27.497,62.984z
					 M39.086,42.559c-1.29,0-2.335-1.044-2.335-2.335V30.27c0-1.29,1.044-2.335,2.335-2.335c1.29,0,2.335,1.044,2.335,2.335v9.954
					C41.421,41.515,40.37,42.559,39.086,42.559L39.086,42.559z M39.086,42.559"/>
			</g>
		</g>
		<g>
			<circle style="fill:#BA7342;" cx="27.614" cy="3.999" r="3.999"/>
		</g>
	</g>
</g>
</svg>
