<?xml version="1.0" encoding="utf-8"?>
<!-- Generator: Adobe Illustrator 24.0.1, SVG Export Plug-In . SVG Version: 6.00 Build 0)  -->
<svg version="1.1" id="图层_1" xmlns="http://www.w3.org/2000/svg" xmlns:xlink="http://www.w3.org/1999/xlink" x="0px" y="0px"
	 viewBox="0 0 75 75" style="enable-background:new 0 0 75 75;" xml:space="preserve">
<style type="text/css">
	.st0{fill:#FFFFFF;}
</style>
<path class="st0" d="M75,37.12c-0.12-9.87-3.99-19.15-10.97-26.15C56.96,3.91,47.53,0,37.5,0C27.47,0,18.08,3.91,11.02,10.98
	C4.03,17.97,0.12,27.25,0,37.12C-0.12,47,3.59,56.32,10.42,63.43c0.2,0.2,0.39,0.4,0.55,0.59c1.82,1.82,3.83,3.48,6,4.9
	c0.55,0.36,1.14,0.51,1.74,0.51c1.03,0,2.05-0.51,2.64-1.42c0.95-1.46,0.55-3.44-0.91-4.38c-1.38-0.91-2.68-1.94-3.91-3.04
	c3.87-7.19,11.13-11.93,19.3-12.48c0.55,0.08,1.11,0.08,1.66,0.08c0.55,0,1.11-0.04,1.66-0.08c8.17,0.55,15.43,5.29,19.3,12.48
	c-4.22,3.87-9.39,6.48-15.04,7.54c-1.78,0.36-3.63,0.55-5.53,0.55c-1.74,0.04-3.12,1.46-3.12,3.2C34.82,73.62,36.2,75,37.93,75h0.04
	c2.25-0.04,4.46-0.28,6.63-0.67c7.34-1.42,14.05-4.98,19.34-10.31l0.59-0.59C71.41,56.32,75.12,47,75,37.12L75,37.12z M28.42,32.78
	c0-5.02,4.07-9.08,9.08-9.08c5.01,0,9.08,4.07,9.08,9.08c0,4.5-3.32,8.29-7.66,8.97c-0.47-0.04-0.95-0.04-1.42-0.04
	c-0.47,0-0.95,0-1.42,0.04C31.74,41.07,28.42,37.32,28.42,32.78L28.42,32.78z M48.35,43.72c2.8-2.8,4.58-6.67,4.58-10.94
	c0-8.49-6.91-15.4-15.39-15.4c-8.49,0-15.39,6.91-15.39,15.4c0,4.27,1.74,8.14,4.58,10.94c-5.96,2.29-11.09,6.44-14.56,11.89
	c-8.64-12.16-7.5-29.34,3.36-40.17c5.88-5.88,13.74-9.12,22.06-9.12s16.14,3.24,22.06,9.12c10.81,10.82,12,28,3.36,40.17
	C59.41,50.16,54.28,46.01,48.35,43.72L48.35,43.72z M48.35,43.72"/>
</svg>
