<?xml version="1.0" encoding="iso-8859-1"?>
<!-- Generator: Adobe Illustrator 24.0.1, SVG Export Plug-In . SVG Version: 6.00 Build 0)  -->
<svg version="1.1" id="&#x56FE;&#x5C42;_1" xmlns="http://www.w3.org/2000/svg" xmlns:xlink="http://www.w3.org/1999/xlink" x="0px"
	 y="0px" viewBox="0 0 70 70" style="enable-background:new 0 0 70 70;" xml:space="preserve">
<g>
	<g>
		<path style="fill:#1C2C4C;" d="M60.09,70H9.911C4.458,70,0,65.542,0,60.09V16.911C0,11.458,4.458,7,9.911,7H60.09
			C65.542,7,70,11.458,70,16.911V60.09C70,65.542,65.542,70,60.09,70L60.09,70z M9.911,12.895c-2.211,0-4.016,1.805-4.016,4.016
			V60.09c0,2.21,1.805,4.016,4.016,4.016H60.09c2.21,0,4.016-1.805,4.016-4.016V16.911c0-2.211-1.805-4.016-4.016-4.016H9.911z
			 M9.911,12.895"/>
		<path style="fill:#1C2C4C;" d="M21.368,19.895c-1.621,0-2.947-1.326-2.947-2.948v-14C18.421,1.326,19.748,0,21.368,0
			c1.621,0,2.948,1.326,2.948,2.948v14C24.316,18.568,22.989,19.895,21.368,19.895L21.368,19.895z M48.632,19.895
			c-1.621,0-2.948-1.326-2.948-2.948v-14C45.684,1.326,47.011,0,48.632,0c1.621,0,2.947,1.326,2.947,2.948v14
			C51.579,18.568,50.253,19.895,48.632,19.895L48.632,19.895z M48.632,19.895"/>
		<path style="fill:#1C2C4C;" d="M18.421,33.711c0,1.628,1.32,2.947,2.947,2.947c1.628,0,2.948-1.319,2.948-2.947
			c0-1.628-1.32-2.947-2.948-2.947C19.741,30.763,18.421,32.083,18.421,33.711L18.421,33.711z M18.421,33.711"/>
		<path style="fill:#1C2C4C;" d="M45.684,33.711c0,1.053,0.562,2.026,1.474,2.552c0.912,0.527,2.035,0.527,2.947,0
			c0.912-0.526,1.474-1.499,1.474-2.552c0-1.053-0.562-2.026-1.474-2.553c-0.912-0.527-2.035-0.527-2.947,0
			C46.246,31.684,45.684,32.658,45.684,33.711L45.684,33.711z M45.684,33.711"/>
		<path style="fill:#1C2C4C;" d="M18.421,48.448c0,1.628,1.32,2.947,2.947,2.947c1.628,0,2.948-1.319,2.948-2.947
			s-1.32-2.948-2.948-2.948C19.741,45.5,18.421,46.82,18.421,48.448L18.421,48.448z M18.421,48.448"/>
		<path style="fill:#1C2C4C;" d="M45.684,48.448c0,1.053,0.562,2.026,1.474,2.552c0.912,0.527,2.035,0.527,2.947,0
			c0.912-0.526,1.474-1.499,1.474-2.552s-0.562-2.026-1.474-2.553c-0.912-0.526-2.035-0.526-2.947,0
			C46.246,46.421,45.684,47.395,45.684,48.448L45.684,48.448z M45.684,48.448"/>
	</g>
</g>
</svg>
