<?xml version="1.0" encoding="utf-8"?>
<!-- Generator: Adobe Illustrator 24.0.1, SVG Export Plug-In . SVG Version: 6.00 Build 0)  -->
<svg version="1.1" id="图层_1" xmlns="http://www.w3.org/2000/svg" xmlns:xlink="http://www.w3.org/1999/xlink" x="0px" y="0px"
	 viewBox="0 0 70 70" style="enable-background:new 0 0 70 70;" xml:space="preserve">
<style type="text/css">
	.st0{fill:#FFFFFF;}
</style>
<g>
	<g>
		<path class="st0" d="M60.09,70H9.91C4.46,70,0,65.54,0,60.09V16.91C0,11.46,4.46,7,9.91,7h50.18C65.54,7,70,11.46,70,16.91v43.18
			C70,65.54,65.54,70,60.09,70L60.09,70z M9.91,12.89c-2.21,0-4.02,1.81-4.02,4.02v43.18c0,2.21,1.81,4.02,4.02,4.02h50.18
			c2.21,0,4.02-1.81,4.02-4.02V16.91c0-2.21-1.81-4.02-4.02-4.02H9.91z M9.91,12.89"/>
		<path class="st0" d="M21.37,19.89c-1.62,0-2.95-1.33-2.95-2.95v-14c0-1.62,1.33-2.95,2.95-2.95c1.62,0,2.95,1.33,2.95,2.95v14
			C24.32,18.57,22.99,19.89,21.37,19.89L21.37,19.89z M48.63,19.89c-1.62,0-2.95-1.33-2.95-2.95v-14c0-1.62,1.33-2.95,2.95-2.95
			c1.62,0,2.95,1.33,2.95,2.95v14C51.58,18.57,50.25,19.89,48.63,19.89L48.63,19.89z M48.63,19.89"/>
		<path class="st0" d="M18.42,33.71c0,1.63,1.32,2.95,2.95,2.95c1.63,0,2.95-1.32,2.95-2.95c0-1.63-1.32-2.95-2.95-2.95
			C19.74,30.76,18.42,32.08,18.42,33.71L18.42,33.71z M18.42,33.71"/>
		<path class="st0" d="M45.68,33.71c0,1.05,0.56,2.03,1.47,2.55c0.91,0.53,2.04,0.53,2.95,0c0.91-0.53,1.47-1.5,1.47-2.55
			c0-1.05-0.56-2.03-1.47-2.55c-0.91-0.53-2.04-0.53-2.95,0C46.25,31.68,45.68,32.66,45.68,33.71L45.68,33.71z M45.68,33.71"/>
		<path class="st0" d="M18.42,48.45c0,1.63,1.32,2.95,2.95,2.95c1.63,0,2.95-1.32,2.95-2.95S23,45.5,21.37,45.5
			C19.74,45.5,18.42,46.82,18.42,48.45L18.42,48.45z M18.42,48.45"/>
		<path class="st0" d="M45.68,48.45c0,1.05,0.56,2.03,1.47,2.55c0.91,0.53,2.04,0.53,2.95,0c0.91-0.53,1.47-1.5,1.47-2.55
			s-0.56-2.03-1.47-2.55c-0.91-0.53-2.04-0.53-2.95,0C46.25,46.42,45.68,47.39,45.68,48.45L45.68,48.45z M45.68,48.45"/>
	</g>
</g>
</svg>
