<?xml version="1.0" encoding="iso-8859-1"?>
<!-- Generator: Adobe Illustrator 24.0.1, SVG Export Plug-In . SVG Version: 6.00 Build 0)  -->
<svg version="1.1" id="&#x56FE;&#x5C42;_1" xmlns="http://www.w3.org/2000/svg" xmlns:xlink="http://www.w3.org/1999/xlink" x="0px"
	 y="0px" viewBox="0 0 55 62.856" style="enable-background:new 0 0 55 62.856;" xml:space="preserve">
<g>
	<defs>
		<path id="SVGID_3_" d="M-175,500h-740c-44,0-80-36-80-80V80c0-44,36-80,80-80h740c44,0,80,36,80,80v340C-95,464-131,500-175,500z"
			/>
	</defs>
	<clipPath id="SVGID_2_">
		<use xlink:href="#SVGID_3_"  style="overflow:visible;"/>
	</clipPath>
</g>
<g>
	<g>
		<g>
			<path style="fill:#EBD9FF;" d="M40.6,62.66H14.727c-4.685,0-8.493-3.808-8.493-8.493V21.578c0-1.296,1.049-2.345,2.345-2.345
				c1.296,0,2.346,1.049,2.346,2.345v32.589c0,2.099,1.703,3.802,3.802,3.802H40.6c2.099,0,3.802-1.703,3.802-3.802V21.578
				c0-1.296,1.049-2.345,2.346-2.345c1.296,0,2.345,1.049,2.345,2.345v32.589C49.093,58.852,45.279,62.66,40.6,62.66L40.6,62.66z"/>
		</g>
		<g>
			<path style="fill:#EBD9FF;" d="M52.655,16.862H2.345C1.049,16.862,0,15.813,0,14.517s1.049-2.345,2.345-2.345h50.309
				c1.296,0,2.345,1.049,2.345,2.345S53.951,16.862,52.655,16.862L52.655,16.862z"/>
		</g>
		<g>
			<g>
				<path style="fill:#EBD9FF;" d="M20.924,50.13c-1.296,0-2.345-1.049-2.345-2.346V29.885c0-1.296,1.049-2.345,2.345-2.345
					c1.296,0,2.346,1.049,2.346,2.345v17.899C23.269,49.081,22.22,50.13,20.924,50.13L20.924,50.13z M34.144,50.192
					c-1.296,0-2.345-1.049-2.345-2.345V29.947c0-1.296,1.049-2.345,2.345-2.345c1.296,0,2.346,1.049,2.346,2.345v17.899
					C36.49,49.143,35.44,50.192,34.144,50.192L34.144,50.192z M13.653,16.548h-0.025c-1.296-0.012-2.333-1.074-2.321-2.37
					l0.068-5.679C11.381,3.808,15.344,0,20.22,0h14.875c4.876,0,8.845,3.821,8.845,8.511v0.025l-0.068,5.69
					c-0.012,1.284-1.062,2.321-2.346,2.321h-0.024c-1.296-0.012-2.333-1.074-2.321-2.37l0.068-5.679
					c-0.006-2.098-1.87-3.808-4.154-3.808H20.22c-2.29,0-4.154,1.716-4.154,3.82v0.025l-0.068,5.69
					C15.986,15.517,14.937,16.548,13.653,16.548L13.653,16.548z M13.653,16.548"/>
			</g>
		</g>
	</g>
</g>
<g>
	<defs>
		<path id="SVGID_19_" d="M9.993-20h-740c-44,0-80-36-80-80v-340c0-44,36-80,80-80h740c44,0,80,36,80,80v340
			C89.993-56,53.993-20,9.993-20z"/>
	</defs>
	<clipPath id="SVGID_4_">
		<use xlink:href="#SVGID_19_"  style="overflow:visible;"/>
	</clipPath>
	<circle style="clip-path:url(#SVGID_4_);fill:#FFD1AF;" cx="-101.889" cy="-56.255" r="235.404"/>
	<circle style="clip-path:url(#SVGID_4_);fill:#FFC59B;" cx="-41.636" cy="-119.574" r="235.404"/>
</g>
</svg>
