<?xml version="1.0" encoding="iso-8859-1"?>
<!-- Generator: Adobe Illustrator 24.0.1, SVG Export Plug-In . SVG Version: 6.00 Build 0)  -->
<svg version="1.1" id="&#x56FE;&#x5C42;_1" xmlns="http://www.w3.org/2000/svg" xmlns:xlink="http://www.w3.org/1999/xlink" x="0px"
	 y="0px" viewBox="0 0 56.851 51.457" style="enable-background:new 0 0 56.851 51.457;" xml:space="preserve">
<g>
	<defs>
		<path id="SVGID_3_" d="M436.917-124.255h-740c-44,0-80-36-80-80v-340c0-44,36-80,80-80h740c44,0,80,36,80,80v340
			C516.917-160.255,480.917-124.255,436.917-124.255z"/>
	</defs>
	<clipPath id="SVGID_2_">
		<use xlink:href="#SVGID_3_"  style="overflow:visible;"/>
	</clipPath>
</g>
<g>
	<path style="fill:#D1D1D1;stroke:#D1D1D1;stroke-width:2;stroke-miterlimit:10;" d="M28.512,50.599
		c-1.443,0.016-2.833-0.545-3.861-1.557L6.265,30.579c-6.533-6.391-7.028-16.739-1.137-23.725C8.254,3.274,12.725,1.154,17.474,1
		c3.98-0.119,7.879,1.14,11.038,3.565C31.669,2.15,35.56,0.891,39.534,1c4.752,0.141,9.228,2.263,12.345,5.853
		c5.908,6.97,5.44,17.318-1.074,23.725L32.357,49.011C31.338,50.032,29.954,50.604,28.512,50.599L28.512,50.599z M18.112,5.67h-0.42
		c-3.479,0.096-6.758,1.642-9.045,4.265C4.339,15.074,4.74,22.669,9.566,27.325L27.951,45.71c0.149,0.146,0.352,0.225,0.561,0.218
		c0.204,0.005,0.401-0.074,0.545-0.218l18.386-18.385c4.83-4.651,5.238-12.247,0.934-17.389C46.1,7.324,42.84,5.779,39.378,5.67
		c-3.449-0.124-6.791,1.203-9.216,3.658c-0.915,0.902-2.385,0.902-3.3,0C24.542,7.003,21.397,5.688,18.112,5.67L18.112,5.67z
		 M18.112,5.67"/>
	<path style="fill:#D1D1D1;stroke:#D1D1D1;stroke-width:2;stroke-miterlimit:10;" d="M44.904,22.561
		c-0.619,0-1.213-0.246-1.651-0.684c-0.438-0.438-0.684-1.032-0.684-1.651c0-1.239-0.492-2.426-1.368-3.302
		c-0.876-0.876-2.064-1.368-3.302-1.368c-1.289,0-2.335-1.046-2.335-2.335c0-1.29,1.045-2.335,2.335-2.335
		c5.159,0,9.341,4.182,9.341,9.341c0,0.619-0.246,1.213-0.684,1.651C46.118,22.315,45.524,22.561,44.904,22.561L44.904,22.561z
		 M44.904,22.561"/>
</g>
</svg>
