<?xml version="1.0" encoding="iso-8859-1"?>
<!-- Generator: Adobe Illustrator 24.0.1, SVG Export Plug-In . SVG Version: 6.00 Build 0)  -->
<svg version="1.1" id="&#x56FE;&#x5C42;_1" xmlns="http://www.w3.org/2000/svg" xmlns:xlink="http://www.w3.org/1999/xlink" x="0px"
	 y="0px" viewBox="0 0 900 500" style="enable-background:new 0 0 900 500;" xml:space="preserve">
<g>
	<defs>
		<path id="SVGID_15_" d="M555.005-20h-240c-44,0-80-36-80-80v-140c0-44,36-80,80-80h240c44,0,80,36,80,80v140
			C635.005-56,599.005-20,555.005-20z"/>
	</defs>
	<clipPath id="SVGID_2_">
		<use xlink:href="#SVGID_15_"  style="overflow:visible;"/>
	</clipPath>
	<path style="clip-path:url(#SVGID_2_);fill:#E2F3D6;" d="M573.298-67.389V48.227l-231.232,0V-67.389
		c0-63.853,51.763-115.616,115.616-115.616h0C521.535-183.005,573.298-131.242,573.298-67.389z"/>
	<path style="clip-path:url(#SVGID_2_);fill:#DAEECD;" d="M635.005-103.208V12.408l-231.232,0v-115.616
		c0-63.853,51.763-115.616,115.616-115.616h0C583.242-218.824,635.005-167.061,635.005-103.208z"/>
</g>
<g>
	<defs>
		<path id="SVGID_17_" d="M135.005-20h-240c-44,0-80-36-80-80v-140c0-44,36-80,80-80h240c44,0,80,36,80,80v140
			C215.005-56,179.005-20,135.005-20z"/>
	</defs>
	<clipPath id="SVGID_4_">
		<use xlink:href="#SVGID_17_"  style="overflow:visible;"/>
	</clipPath>
	<path style="clip-path:url(#SVGID_4_);fill:#E5D1FF;" d="M-62.077-53.551L7.287-173.693c8.284-14.349,26.632-19.265,40.981-10.981
		l120.142,69.364c14.349,8.284,19.265,26.632,10.981,40.981L110.026,45.813c-8.284,14.349-26.632,19.265-40.981,10.981
		L-51.096-12.57C-65.445-20.854-70.361-39.202-62.077-53.551z"/>
	<path style="clip-path:url(#SVGID_4_);fill:#DAC2F3;" d="M35.78-161.971l120.142-69.364c14.349-8.284,32.696-3.368,40.981,10.981
		l69.364,120.142c8.284,14.349,3.368,32.696-10.981,40.981L135.144,10.132c-14.349,8.284-32.696,3.368-40.981-10.981L24.799-120.991
		C16.515-135.339,21.431-153.687,35.78-161.971z"/>
</g>
<path style="fill:#FBBB85;" d="M820,500H80c-44,0-80-36-80-80V80C0,36,36,0,80,0h740c44,0,80,36,80,80v340C900,464,864,500,820,500z
	"/>
<g>
	<defs>
		<path id="SVGID_23_" d="M820,500H80c-44,0-80-36-80-80V80C0,36,36,0,80,0h740c44,0,80,36,80,80v340C900,464,864,500,820,500z"/>
	</defs>
	<clipPath id="SVGID_6_">
		<use xlink:href="#SVGID_23_"  style="overflow:visible;"/>
	</clipPath>
	<circle style="clip-path:url(#SVGID_6_);fill:#FFD1AF;" cx="708.118" cy="463.745" r="235.404"/>
	<circle style="clip-path:url(#SVGID_6_);fill:#FFC59B;" cx="768.372" cy="400.426" r="235.404"/>
</g>
</svg>
