<?xml version="1.0" encoding="iso-8859-1"?>
<!-- Generator: Adobe Illustrator 24.0.1, SVG Export Plug-In . SVG Version: 6.00 Build 0)  -->
<svg version="1.1" id="&#x56FE;&#x5C42;_1" xmlns="http://www.w3.org/2000/svg" xmlns:xlink="http://www.w3.org/1999/xlink" x="0px"
	 y="0px" viewBox="0 0 55 55" style="enable-background:new 0 0 55 55;" xml:space="preserve">
<g>
	<g>
		<g>
			<g>
				<path style="fill:#1A2C4B;" d="M27.523,55C16.772,55.017,6.998,48.758,2.509,38.981c-4.488-9.777-2.867-21.276,4.15-29.428
					c6.29-7.308,15.88-10.723,25.239-9.195c1.599,0.261,2.421,2.065,1.583,3.453l0,0C33,4.609,32.084,5.042,31.165,4.894
					C22.15,3.437,13.063,7.493,8.146,15.308C2.958,23.553,3.547,34.18,9.615,41.8c6.067,7.62,16.286,10.567,25.475,7.347
					c9.189-3.22,15.339-11.903,15.331-21.647c0-2.286-0.349-4.558-1.031-6.736c-0.195-0.623-0.108-1.3,0.228-1.859v0
					c1.024-1.701,3.576-1.389,4.161,0.509c2.303,7.465,1.338,15.65-2.814,22.444C45.973,50.027,37.091,55.006,27.523,55L27.523,55z
					 M29.629,35.221c-0.104,0.306-0.276,0.584-0.504,0.814c-0.432,0.436-1.038,0.655-1.649,0.593
					c-0.981,0.068-1.877-0.557-2.153-1.501l-8.747-8.749c-0.724-0.816-0.687-2.055,0.084-2.827c0.77-0.772,2.008-0.81,2.824-0.086
					l7.442,7.45L43.849,5.767c0.296-0.543,0.799-0.942,1.394-1.108c0.595-0.166,1.232-0.085,1.766,0.226
					c1.106,0.683,1.47,2.12,0.824,3.247L29.629,35.221z M29.629,35.221"/>
			</g>
		</g>
	</g>
</g>
</svg>
