<?xml version="1.0" encoding="iso-8859-1"?>
<!-- Generator: Adobe Illustrator 24.0.1, SVG Export Plug-In . SVG Version: 6.00 Build 0)  -->
<svg version="1.1" id="&#x56FE;&#x5C42;_1" xmlns="http://www.w3.org/2000/svg" xmlns:xlink="http://www.w3.org/1999/xlink" x="0px"
	 y="0px" viewBox="0 0 56.851 56.947" style="enable-background:new 0 0 56.851 56.947;" xml:space="preserve">
<g>
	<defs>
		<path id="SVGID_3_" d="M820.002-124.255h-740c-44,0-80-36-80-80v-340c0-44,36-80,80-80h740c44,0,80,36,80,80v340
			C900.002-160.255,864.002-124.255,820.002-124.255z"/>
	</defs>
	<clipPath id="SVGID_2_">
		<use xlink:href="#SVGID_3_"  style="overflow:visible;"/>
	</clipPath>
</g>
<g>
	<g>
		<path style="fill:#FFF0E6;stroke:#FEEFE5;stroke-width:2;stroke-miterlimit:10;" d="M28.568,56.088
			c-1.643,0-2.987-1.344-2.987-2.987V4.075c0-1.643,1.344-2.987,2.987-2.987c1.643,0,2.987,1.344,2.987,2.987v49.026
			C31.555,54.744,30.211,56.088,28.568,56.088L28.568,56.088z M28.568,56.088"/>
		<path style="fill:#FFF0E6;stroke:#FEEFE5;stroke-width:2;stroke-miterlimit:10;" d="M53.099,31.556H4.037
			c-1.643,0-2.987-1.344-2.987-2.987c0-1.643,1.344-2.987,2.987-2.987h49.026c1.643,0,2.987,1.344,2.987,2.987
			C56.049,30.212,54.742,31.556,53.099,31.556L53.099,31.556z M53.099,31.556"/>
	</g>
</g>
</svg>
