<?xml version="1.0" encoding="iso-8859-1"?>
<!-- Generator: Adobe Illustrator 24.0.1, SVG Export Plug-In . SVG Version: 6.00 Build 0)  -->
<svg version="1.1" id="&#x56FE;&#x5C42;_1" xmlns="http://www.w3.org/2000/svg" xmlns:xlink="http://www.w3.org/1999/xlink" x="0px"
	 y="0px" viewBox="0 0 57.149 56.952" style="enable-background:new 0 0 57.149 56.952;" xml:space="preserve">
<g>
	<defs>
		<path id="SVGID_3_" d="M377.129-20h-740c-44,0-80-36-80-80v-340c0-44,36-80,80-80h740c44,0,80,36,80,80v340
			C457.129-56,421.129-20,377.129-20z"/>
	</defs>
	<clipPath id="SVGID_2_">
		<use xlink:href="#SVGID_3_"  style="overflow:visible;"/>
	</clipPath>
	<circle style="clip-path:url(#SVGID_2_);fill:#E5D1FF;" cx="265.248" cy="-56.255" r="235.404"/>
</g>
<g>
	<g>
		<g>
			<path style="fill:#BA7342;stroke:#BA7342;stroke-width:2;stroke-miterlimit:10;" d="M28.654,56.023
				C17.903,56.04,8.129,49.781,3.641,40.004c-4.488-9.777-2.867-21.276,4.15-29.428c6.29-7.308,15.88-10.723,25.239-9.195
				c1.599,0.261,2.421,2.065,1.583,3.453l0,0c-0.481,0.797-1.397,1.231-2.316,1.082C23.282,4.46,14.194,8.516,9.277,16.331
				c-5.188,8.245-4.598,18.872,1.469,26.492c6.067,7.62,16.286,10.567,25.475,7.347c9.189-3.22,15.339-11.903,15.331-21.647
				c0-2.286-0.349-4.558-1.031-6.736c-0.195-0.623-0.108-1.3,0.228-1.859l0,0c1.024-1.701,3.576-1.389,4.161,0.509
				c2.303,7.465,1.338,15.65-2.814,22.444C47.104,51.05,38.222,56.029,28.654,56.023L28.654,56.023z M30.761,36.244
				c-0.104,0.306-0.276,0.584-0.504,0.814c-0.432,0.436-1.038,0.655-1.649,0.593c-0.981,0.068-1.877-0.557-2.153-1.501L17.708,27.4
				c-0.724-0.816-0.687-2.055,0.084-2.827c0.77-0.772,2.008-0.81,2.824-0.086l7.442,7.45L44.981,6.789
				c0.296-0.543,0.799-0.942,1.394-1.108c0.595-0.166,1.232-0.085,1.766,0.226c1.106,0.683,1.47,2.12,0.824,3.247L30.761,36.244z
				 M30.761,36.244"/>
		</g>
	</g>
</g>
</svg>
