<?xml version="1.0" encoding="iso-8859-1"?>
<!-- Generator: Adobe Illustrator 24.0.1, SVG Export Plug-In . SVG Version: 6.00 Build 0)  -->
<svg version="1.1" id="&#x56FE;&#x5C42;_1" xmlns="http://www.w3.org/2000/svg" xmlns:xlink="http://www.w3.org/1999/xlink" x="0px"
	 y="0px" viewBox="0 0 400 299.979" style="enable-background:new 0 0 400 299.979;" xml:space="preserve">
<path style="fill:#91E1E7;" d="M320,300H80c-44,0-80-36-80-80V80C0,36,36,0,80,0h240c44,0,80,36,80,80v140C400,264,364,300,320,300z
	"/>
<g>
	<defs>
		<path id="SVGID_19_" d="M320,299.979H80c-44,0-80-36-80-80v-140c0-44,36-80,80-80h240c44,0,80,36,80,80v140
			C400,263.979,364,299.979,320,299.979z"/>
	</defs>
	<clipPath id="SVGID_2_">
		<use xlink:href="#SVGID_19_"  style="overflow:visible;"/>
	</clipPath>
	<g style="clip-path:url(#SVGID_2_);">
		<circle style="fill:#B2FFFF;" cx="220.551" cy="210.733" r="89.245"/>
		<path style="fill:#B2FFFF;" d="M220.551,121.488l-89.245,0l0,89.245C180.595,210.733,220.551,170.777,220.551,121.488"/>
	</g>
	<g style="clip-path:url(#SVGID_2_);">
		<circle style="fill:#A7F3F1;" cx="315.713" cy="202.904" r="97.075"/>
		<path style="fill:#A7F3F1;" d="M218.638,202.904v97.075h97.075C315.713,246.366,272.251,202.904,218.638,202.904"/>
	</g>
</g>
</svg>
