<?xml version="1.0" encoding="iso-8859-1"?>
<!-- Generator: Adobe Illustrator 24.0.1, SVG Export Plug-In . SVG Version: 6.00 Build 0)  -->
<svg version="1.1" id="&#x56FE;&#x5C42;_1" xmlns="http://www.w3.org/2000/svg" xmlns:xlink="http://www.w3.org/1999/xlink" x="0px"
	 y="0px" viewBox="0 0 400 300" style="enable-background:new 0 0 400 300;" xml:space="preserve">
<path style="fill:#D2B6EC;" d="M320,300H80c-44,0-80-36-80-80V80C0,36,36,0,80,0h240c44,0,80,36,80,80v140C400,264,364,300,320,300z
	"/>
<g>
	<defs>
		<path id="SVGID_17_" d="M320,300.021H80c-44,0-80-36-80-80v-140c0-44,36-80,80-80h240c44,0,80,36,80,80v140
			C400,264.021,364,300.021,320,300.021z"/>
	</defs>
	<clipPath id="SVGID_2_">
		<use xlink:href="#SVGID_17_"  style="overflow:visible;"/>
	</clipPath>
	<path style="clip-path:url(#SVGID_2_);fill:#E5D1FF;" d="M122.917,266.471l69.364-120.142
		c8.284-14.349,26.632-19.265,40.981-10.981l120.142,69.364c14.349,8.284,19.265,26.632,10.981,40.981l-69.364,120.142
		c-8.284,14.349-26.632,19.265-40.981,10.981l-120.142-69.364C119.549,299.167,114.633,280.819,122.917,266.471z"/>
	<path style="clip-path:url(#SVGID_2_);fill:#DAC2F3;" d="M220.774,158.05l120.142-69.364c14.349-8.284,32.697-3.368,40.981,10.981
		l69.364,120.142c8.284,14.349,3.368,32.696-10.981,40.981l-120.142,69.364c-14.349,8.284-32.696,3.368-40.981-10.981
		l-69.364-120.142C201.509,184.682,206.425,166.334,220.774,158.05z"/>
</g>
</svg>
