<?xml version="1.0" encoding="iso-8859-1"?>
<!-- Generator: Adobe Illustrator 24.0.1, SVG Export Plug-In . SVG Version: 6.00 Build 0)  -->
<svg version="1.1" id="&#x56FE;&#x5C42;_1" xmlns="http://www.w3.org/2000/svg" xmlns:xlink="http://www.w3.org/1999/xlink" x="0px"
	 y="0px" viewBox="0 0 400 300" style="enable-background:new 0 0 400 300;" xml:space="preserve">
<path style="fill:#FBBB85;" d="M320,299.979H80c-44,0-80-36-80-80v-140c0-44,36-80,80-80h240c44,0,80,36,80,80v140
	C400,263.979,364,299.979,320,299.979z"/>
<g>
	<defs>
		<path id="SVGID_25_" d="M320,299.979H80c-44,0-80-36-80-80v-140c0-44,36-80,80-80h240c44,0,80,36,80,80v140
			C400,263.979,364,299.979,320,299.979z"/>
	</defs>
	<clipPath id="SVGID_2_">
		<use xlink:href="#SVGID_25_"  style="overflow:visible;"/>
	</clipPath>
	<path style="clip-path:url(#SVGID_2_);fill:#FFD1AF;" d="M347.749,170.128l-55.34,199.707l-199.707-55.34
		C123.266,204.2,237.454,139.565,347.749,170.128"/>
	<path style="clip-path:url(#SVGID_2_);fill:#FFC59B;" d="M461.609,125.788l-24.54,205.774l-205.774-24.54
		C244.848,193.376,347.963,112.235,461.609,125.788"/>
</g>
</svg>
